<?xml version="1.0" encoding="utf-8"?>
<!-- Generator: Adobe Illustrator 25.3.1, SVG Export Plug-In . SVG Version: 6.00 Build 0)  -->
<svg version="1.1" id="Layer_1" xmlns="http://www.w3.org/2000/svg" xmlns:xlink="http://www.w3.org/1999/xlink" x="0px" y="0px"
	 viewBox="0 0 496.1 511.9" style="enable-background:new 0 0 496.1 511.9;" xml:space="preserve">
<style type="text/css">
	.st0{fill:#FFFFFF;stroke:#231F20;stroke-width:3;stroke-miterlimit:10;}
	.st1{fill:#231F20;}
</style>
<circle class="st0" cx="147.3" cy="83.2" r="20.9"/>
<circle class="st0" cx="147.3" cy="140.7" r="20.9"/>
<circle class="st0" cx="147.3" cy="198" r="20.9"/>
<circle class="st0" cx="147.3" cy="255.2" r="20.9"/>
<circle class="st0" cx="147.3" cy="370.3" r="20.9"/>
<circle class="st0" cx="147.3" cy="427.8" r="20.9"/>
<circle class="st0" cx="43.9" cy="140.4" r="20.9"/>
<circle class="st0" cx="43.9" cy="198.2" r="20.9"/>
<circle class="st0" cx="43.9" cy="255.2" r="20.9"/>
<circle class="st0" cx="43.9" cy="312.7" r="20.9"/>
<circle class="st0" cx="43.9" cy="370" r="20.9"/>
<circle class="st0" cx="97" cy="112" r="20.9"/>
<circle class="st0" cx="97" cy="169.5" r="20.9"/>
<circle class="st0" cx="97" cy="226.7" r="20.9"/>
<circle class="st0" cx="97" cy="284" r="20.9"/>
<circle class="st0" cx="97" cy="341.2" r="20.9"/>
<circle class="st0" cx="97" cy="398.5" r="20.9"/>
<circle class="st0" cx="453.6" cy="140.4" r="20.9"/>
<circle class="st0" cx="453.6" cy="197.4" r="20.9"/>
<circle class="st0" cx="453.6" cy="255.2" r="20.9"/>
<circle class="st0" cx="453.6" cy="311.9" r="20.9"/>
<circle class="st0" cx="453.6" cy="370.5" r="20.9"/>
<circle class="st0" cx="401.4" cy="112" r="20.9"/>
<circle class="st0" cx="401.4" cy="169.5" r="20.9"/>
<circle class="st0" cx="401.4" cy="226.7" r="20.9"/>
<circle class="st0" cx="401.4" cy="284" r="20.9"/>
<circle class="st0" cx="401.4" cy="341.2" r="20.9"/>
<circle class="st0" cx="401.4" cy="398.5" r="20.9"/>
<circle class="st0" cx="351.1" cy="82.9" r="20.9"/>
<circle class="st0" cx="351.1" cy="140.7" r="20.9"/>
<circle class="st0" cx="351.1" cy="197.4" r="20.9"/>
<circle class="st0" cx="351.1" cy="255.2" r="20.9"/>
<circle class="st0" cx="351.1" cy="311.9" r="20.9"/>
<circle class="st0" cx="351.1" cy="370.5" r="20.9"/>
<circle class="st0" cx="351.1" cy="427.8" r="20.9"/>
<circle class="st1" cx="147.3" cy="311.9" r="20.9"/>
<circle class="st0" cx="300.9" cy="55" r="20.9"/>
<circle class="st0" cx="300.9" cy="110.8" r="20.9"/>
<circle class="st0" cx="300.9" cy="169.5" r="20.9"/>
<circle class="st0" cx="300.9" cy="225.3" r="20.9"/>
<circle class="st0" cx="300.9" cy="284" r="20.9"/>
<circle class="st0" cx="300.9" cy="341.2" r="20.9"/>
<circle class="st0" cx="300.9" cy="398.5" r="20.9"/>
<circle class="st0" cx="300.9" cy="456" r="20.9"/>
<circle class="st0" cx="249.2" cy="25.7" r="20.9"/>
<circle class="st0" cx="249.2" cy="82.9" r="20.9"/>
<circle class="st0" cx="249.2" cy="140.4" r="20.9"/>
<circle class="st0" cx="249.2" cy="197.4" r="20.9"/>
<circle class="st0" cx="249.2" cy="256.1" r="20.9"/>
<circle class="st0" cx="249.2" cy="312.7" r="20.9"/>
<circle class="st0" cx="249.2" cy="370.5" r="20.9"/>
<circle class="st0" cx="249.2" cy="427.5" r="20.9"/>
<circle class="st0" cx="197.5" cy="54.1" r="20.9"/>
<circle class="st0" cx="197.5" cy="111.7" r="20.9"/>
<circle class="st0" cx="197.5" cy="168.9" r="20.9"/>
<circle class="st0" cx="197.5" cy="226.5" r="20.9"/>
<circle class="st0" cx="197.5" cy="284" r="20.9"/>
<circle class="st0" cx="197.5" cy="341.2" r="20.9"/>
<circle class="st0" cx="197.5" cy="398.5" r="20.9"/>
<circle class="st0" cx="197.5" cy="456" r="20.9"/>
<circle class="st0" cx="249.2" cy="485" r="20.9"/>
</svg>
